<svg xmlns="http://www.w3.org/2000/svg" xmlns:svg="http://www.w3.org/2000/svg" id="Capa_1" x="0" y="0" version="1.1" viewBox="0 0 58 58" xml:space="preserve" style="enable-background:new 0 0 58 58"><metadata id="metadata71"/><g id="g115" transform="matrix(0.85892673,0,0,0.85892673,0.28214655,0)"><polygon style="fill:#545e73" id="polygon2" points="2 58 49 58 49 2 34 2 30 2 30 5 21 5 21 2 17 2 2 2"/><rect style="fill:#404656" id="rect4" width="9" height="5" x="21" y="0"/><polygon style="fill:#8697cb" id="polygon8" points="37 2 30 2 30 5 21 5 21 2 14 2 14 8 37 8"/></g><g id="g972" transform="matrix(0.90104204,0,0,0.90104204,5.5687605,5.6041745)"><rect id="rect137" width="36" height="43.902" x="20.274" y="12.73" style="fill:#efebde;fill-opacity:1;stroke-width:1.244;stroke-miterlimit:4;stroke-dasharray:none"/><g id="g82" transform="matrix(0.87804878,0,0,0.87804878,15.883756,8.3396248)"><path style="fill:#d5d0bb" id="path10" d="M 24,16 H 11 c -0.553,0 -1,-0.447 -1,-1 0,-0.553 0.447,-1 1,-1 h 13 c 0.553,0 1,0.447 1,1 0,0.553 -0.447,1 -1,1 z"/><path style="fill:#d5d0bb" id="path12" d="M 24,47 H 11 c -0.553,0 -1,-0.447 -1,-1 0,-0.553 0.447,-1 1,-1 h 13 c 0.553,0 1,0.447 1,1 0,0.553 -0.447,1 -1,1 z"/><path style="fill:#d5d0bb" id="path14" d="M 40,22 H 11 c -0.553,0 -1,-0.447 -1,-1 0,-0.553 0.447,-1 1,-1 h 29 c 0.553,0 1,0.447 1,1 0,0.553 -0.447,1 -1,1 z"/><path style="fill:#d5d0bb" id="path16" d="M 40,34 H 11 c -0.553,0 -1,-0.447 -1,-1 0,-0.553 0.447,-1 1,-1 h 29 c 0.553,0 1,0.447 1,1 0,0.553 -0.447,1 -1,1 z"/><path style="fill:#d5d0bb" id="path18" d="M 40,41 H 11 c -0.553,0 -1,-0.447 -1,-1 0,-0.553 0.447,-1 1,-1 h 29 c 0.553,0 1,0.447 1,1 0,0.553 -0.447,1 -1,1 z"/><path style="fill:#d5d0bb" id="path20" d="M 25,28 H 11 c -0.553,0 -1,-0.447 -1,-1 0,-0.553 0.447,-1 1,-1 h 14 c 0.553,0 1,0.447 1,1 0,0.553 -0.447,1 -1,1 z"/><path style="fill:#d5d0bb" id="path22" d="m 40,28 h -7 c -0.553,0 -1,-0.447 -1,-1 0,-0.553 0.447,-1 1,-1 h 7 c 0.553,0 1,0.447 1,1 0,0.553 -0.447,1 -1,1 z"/><path style="fill:#d5d0bb" id="path24" d="M 29,28 C 28.729,28 28.479,27.899 28.29,27.71 28.109,27.52 28,27.26 28,27 c 0,-0.271 0.1,-0.521 0.29,-0.71 0.38,-0.38 1.04,-0.37 1.42,0 0.189,0.189 0.29,0.439 0.29,0.71 0,0.27 -0.11,0.52 -0.29,0.71 C 29.52,27.89 29.27,28 29,28 Z"/></g></g></svg>